<svg width="115" height="115" viewBox="0 0 115 115" fill="none" xmlns="http://www.w3.org/2000/svg">
<path d="M91.0414 0L84.1191 24.568L70.2776 31.7978L84.1191 39.0245L91.0414 60.7012L97.9638 39.0213L111.805 31.7946L97.9638 24.5712L91.0414 0Z" fill="#1F4590"/>
<path d="M44.7221 19.1687L41.5276 31.9479L31.9443 35.1427L41.5276 38.3375L44.7221 51.1167L47.9165 38.3375L57.4998 35.1427L47.9165 31.9479L44.7221 19.1687Z" fill="#1F4590"/>
<path d="M0 76.6751C0 75.8278 0.336556 75.0152 0.935629 74.4161C1.5347 73.8169 2.34722 73.4803 3.19444 73.4803H12.7777C13.625 73.4803 14.4375 73.8169 15.0366 74.4161C15.6356 75.0152 15.9722 75.8278 15.9722 76.6751V111.805C15.9722 112.652 15.6356 113.465 15.0366 114.064C14.4375 114.663 13.625 115 12.7777 115H3.19444C2.34722 115 1.5347 114.663 0.935629 114.064C0.336556 113.465 0 112.652 0 111.805V76.6783V76.6751Z" fill="#1F4590"/>
<path d="M37.3908 74.0841C40.368 72.7263 47.6449 74.0841 47.6449 74.0841L68.8113 78.8315C68.8113 78.8315 74.1044 80.528 79.0654 80.528C84.0263 80.528 81.0587 87.3201 77.7397 89.6907C74.4239 92.0612 72.0089 91.9334 72.0089 91.9334L54.9186 91.7257C54.9186 91.7257 69.8047 94.4413 75.4269 94.78C78.2732 94.9525 83.1575 92.9461 88.6199 90.7066C93.9387 88.5213 99.8005 86.1157 104.86 85.2786C115.115 83.5854 116.769 92.7449 113.46 96.1378C110.154 99.5306 83.6941 112.422 79.0654 114.118C75.4365 115.447 71.0506 115.006 66.1024 114.508C64.732 114.37 63.3168 114.227 61.8665 114.118C56.0846 113.68 51.6699 112.275 47.2999 110.885C42.6105 109.396 37.9754 107.923 31.7686 107.671C29.6858 107.588 24.8111 107.847 22.361 107.99V79.6782C26.5968 78.1702 35.1738 75.0904 37.3908 74.0809V74.0841Z" fill="#1F4590"/>
</svg>
