<svg width="22" height="22" viewBox="0 0 22 22" fill="none" xmlns="http://www.w3.org/2000/svg">
<path fill-rule="evenodd" clip-rule="evenodd" d="M1.83325 11C1.83325 5.93998 5.93992 1.83331 10.9999 1.83331C16.0599 1.83331 20.1666 5.93998 20.1666 11C20.1666 16.06 16.0599 20.1667 10.9999 20.1667C5.93992 20.1667 1.83325 16.06 1.83325 11ZM5.22491 11.6417L8.51574 14.9325C8.87324 15.29 9.45991 15.29 9.80824 14.9325L16.7657 7.97501C17.1232 7.61751 17.1232 7.04001 16.7657 6.68251C16.4082 6.32501 15.8307 6.32501 15.4732 6.68251L9.16657 12.9892L6.51741 10.3492C6.15991 9.99168 5.58241 9.99168 5.22491 10.3492C5.05326 10.5204 4.9568 10.753 4.9568 10.9954C4.9568 11.2379 5.05326 11.4704 5.22491 11.6417Z" fill="#00C04D"/>
</svg>
