<svg width="86" height="86" viewBox="0 0 86 86" fill="none" xmlns="http://www.w3.org/2000/svg">
<path d="M68.0832 0L62.9065 18.3726L52.5554 23.7793L62.9065 29.1835L68.0832 45.3939L73.2599 29.1811L83.6109 23.7769L73.2599 18.375L68.0832 0Z" fill="#1F4590"/>
<path d="M33.4443 14.3348L31.0554 23.8915L23.8888 26.2806L31.0554 28.6698L33.4443 38.2264L35.8332 28.6698L42.9999 26.2806L35.8332 23.8915L33.4443 14.3348Z" fill="#1F4590"/>
<path d="M0 57.3397C0 56.7061 0.251686 56.0984 0.699688 55.6503C1.14769 55.2023 1.75531 54.9506 2.38888 54.9506H9.55553C10.1891 54.9506 10.7967 55.2023 11.2447 55.6503C11.6927 56.0984 11.9444 56.7061 11.9444 57.3397V83.6109C11.9444 84.2445 11.6927 84.8522 11.2447 85.3002C10.7967 85.7483 10.1891 86 9.55553 86H2.38888C1.75531 86 1.14769 85.7483 0.699688 85.3002C0.251686 84.8522 0 84.2445 0 83.6109V57.3421V57.3397Z" fill="#1F4590"/>
<path d="M27.9619 55.402C30.1883 54.3866 35.6302 55.402 35.6302 55.402L51.4589 58.9523C51.4589 58.9523 55.4173 60.2209 59.1272 60.2209C62.8372 60.2209 60.6179 65.3002 58.1358 67.073C55.6562 68.8457 53.8502 68.7502 53.8502 68.7502L41.0697 68.5949C41.0697 68.5949 52.2018 70.6257 56.4063 70.8789C58.5348 71.0079 62.1874 69.5075 66.2724 67.8327C70.2499 66.1986 74.6335 64.3995 78.4174 63.7736C86.0858 62.5073 87.3232 69.357 84.8483 71.8943C82.3758 74.4316 62.5887 84.0718 59.1272 85.3405C56.4134 86.3344 53.1335 86.0046 49.4331 85.6319C48.4083 85.5292 47.35 85.4217 46.2655 85.3405C41.9416 85.0132 38.6402 83.9619 35.3722 82.9226C31.8653 81.8093 28.399 80.7079 23.7574 80.5191C22.1999 80.457 18.5544 80.6505 16.7222 80.7581V59.5854C19.8898 58.4577 26.304 56.1546 27.9619 55.3996V55.402Z" fill="#1F4590"/>
</svg>
