<svg width="13" height="16" viewBox="0 0 13 16" fill="none" xmlns="http://www.w3.org/2000/svg">
<path d="M6.49996 9.60006C8.29232 9.60006 9.74993 8.16485 9.74993 6.40004C9.74993 4.63522 8.29232 3.20001 6.49996 3.20001C4.70761 3.20001 3.25 4.63522 3.25 6.40004C3.25 8.16485 4.70761 9.60006 6.49996 9.60006ZM6.49996 4.80002C7.39614 4.80002 8.12495 5.51763 8.12495 6.40004C8.12495 7.28244 7.39614 8.00005 6.49996 8.00005C5.60379 8.00005 4.87498 7.28244 4.87498 6.40004C4.87498 5.51763 5.60379 4.80002 6.49996 4.80002Z" fill="#ECEEF4"/>
<path d="M6.02876 15.8513C6.16627 15.948 6.33102 16 6.5 16C6.66898 16 6.83373 15.948 6.97125 15.8513C7.21824 15.6793 13.0235 11.5521 12.9999 6.40005C12.9999 2.87122 10.0839 0 6.5 0C2.9161 0 7.15299e-05 2.87122 7.15299e-05 6.39605C-0.0234907 11.5521 5.78176 15.6793 6.02876 15.8513ZM6.5 1.60001C9.18853 1.60001 11.3749 3.75283 11.3749 6.40405C11.392 9.95448 7.80974 13.1425 6.5 14.1881C5.19108 13.1417 1.60799 9.95288 1.62505 6.40005C1.62505 3.75283 3.81147 1.60001 6.5 1.60001Z" fill="#ECEEF4"/>
</svg>
