<svg width="180" height="180" viewBox="0 0 180 180" fill="none" xmlns="http://www.w3.org/2000/svg">
<path d="M92.8125 78.75H112.5V67.5H101.25V61.875H90V67.7813C86.5824 68.4752 83.5445 70.4143 81.4762 73.2221C79.4079 76.0299 78.4566 79.5061 78.8071 82.9758C79.1575 86.4455 80.7848 89.6612 83.3728 91.9986C85.9609 94.3361 89.3251 95.6285 92.8125 95.625H98.4375C99.1834 95.625 99.8988 95.9213 100.426 96.4488C100.954 96.9762 101.25 97.6916 101.25 98.4375C101.25 99.1834 100.954 99.8988 100.426 100.426C99.8988 100.954 99.1834 101.25 98.4375 101.25H78.75V112.5H90V118.125H101.25V112.219C104.668 111.525 107.705 109.586 109.774 106.778C111.842 103.97 112.793 100.494 112.443 97.0242C112.092 93.5545 110.465 90.3388 107.877 88.0014C105.289 85.6639 101.925 84.3715 98.4375 84.375H92.8125C92.0666 84.375 91.3512 84.0787 90.8238 83.5512C90.2963 83.0238 90 82.3084 90 81.5625C90 80.8166 90.2963 80.1012 90.8238 79.5738C91.3512 79.0463 92.0666 78.75 92.8125 78.75Z" fill="#1F4590"/>
<path d="M163.125 73.125H151.762C151.601 68.6809 150.529 64.3172 148.613 60.3039C146.697 56.2905 143.979 52.713 140.625 49.7925V28.125C140.625 27.0804 140.334 26.0564 139.785 25.1678C139.236 24.2792 138.45 23.561 137.516 23.0938C136.581 22.6267 135.535 22.4289 134.495 22.5227C133.454 22.6165 132.461 22.9982 131.625 23.625L110.627 39.375H84.375C53.3812 39.375 31.1456 57.6056 28.4175 84.375H28.125C26.6332 84.375 25.2024 83.7824 24.1475 82.7275C23.0926 81.6726 22.5 80.2418 22.5 78.75V67.5H11.25V78.75C11.2545 83.2242 13.0338 87.5138 16.1975 90.6775C19.3612 93.8412 23.6508 95.6205 28.125 95.625H28.5188C29.3345 103.001 31.7316 110.114 35.5466 116.479C39.3616 122.844 44.5047 128.312 50.625 132.508V151.875C50.625 153.367 51.2176 154.798 52.2725 155.852C53.3274 156.907 54.7582 157.5 56.25 157.5H78.75C80.2418 157.5 81.6726 156.907 82.7275 155.852C83.7824 154.798 84.375 153.367 84.375 151.875V140.625H101.25V151.875C101.25 153.367 101.843 154.798 102.898 155.852C103.952 156.907 105.383 157.5 106.875 157.5H129.375C130.867 157.5 132.298 156.907 133.352 155.852C134.407 154.798 135 153.367 135 151.875V132.958C139.063 131.032 142.616 128.176 145.371 124.622C148.125 121.068 150.005 116.915 150.857 112.5H163.125C164.617 112.5 166.048 111.907 167.102 110.852C168.157 109.798 168.75 108.367 168.75 106.875V78.75C168.75 77.2582 168.157 75.8274 167.102 74.7725C166.048 73.7176 164.617 73.125 163.125 73.125ZM157.5 101.25H141.323C139.607 116.736 136.688 120.853 123.75 125.522V146.25H112.5V129.375H73.125V146.25H61.875V125.876C55.1019 122.654 49.3879 117.568 45.4028 111.213C41.4177 104.859 39.3267 97.5003 39.375 90C39.375 62.8031 61.9762 50.625 84.375 50.625H114.373L129.375 39.375V54.99C142.976 65.4525 140.136 72.9113 140.726 84.375H157.5V101.25Z" fill="#1F4590"/>
</svg>
