<svg width="122" height="136" viewBox="0 0 122 136" fill="none" xmlns="http://www.w3.org/2000/svg">
<path d="M49.75 19.25C49.75 18.2554 50.1451 17.3016 50.8483 16.5984C51.5516 15.8951 52.5054 15.5 53.5 15.5H68.5C69.4946 15.5 70.4484 15.8951 71.1517 16.5984C71.8549 17.3016 72.25 18.2554 72.25 19.25C72.25 20.2446 71.8549 21.1984 71.1517 21.9016C70.4484 22.6049 69.4946 23 68.5 23H53.5C52.5054 23 51.5516 22.6049 50.8483 21.9016C50.1451 21.1984 49.75 20.2446 49.75 19.25Z" fill="#1F4590"/>
<path fill-rule="evenodd" clip-rule="evenodd" d="M96.1151 47.45C94.7538 48.5188 92.9876 49.3738 90.8576 50.0675C91.2651 54.2336 90.7962 58.4388 89.4812 62.4128C88.1662 66.3868 86.034 70.0416 83.2219 73.1423C80.4097 76.2429 76.9798 78.7207 73.1527 80.4164C69.3256 82.1121 65.186 82.9881 61.0001 82.9881C56.8141 82.9881 52.6745 82.1121 48.8474 80.4164C45.0203 78.7207 41.5904 76.2429 38.7783 73.1423C35.9661 70.0416 33.834 66.3868 32.5189 62.4128C31.2039 58.4388 30.7351 54.2336 31.1426 50.0675C29.0126 49.3738 27.2463 48.5188 25.8888 47.45C24.1263 46.0625 22.9451 44.21 22.8063 41.9825C22.6751 39.9163 23.4926 38.1613 24.3101 36.9238C25.1171 35.7516 26.0754 34.6912 27.1601 33.77C27.6851 33.3088 28.2026 32.9 28.6826 32.5438C28.5401 31.775 28.3826 30.845 28.2251 29.7688C27.5607 25.0418 27.2349 20.2734 27.2501 15.5C27.2501 14.3225 27.7526 13.445 27.9851 13.0737C28.2776 12.605 28.6226 12.2038 28.9376 11.8813C29.5638 11.225 30.3738 10.5575 31.2626 9.91625C33.0626 8.61125 35.5376 7.145 38.4776 5.7725C44.3388 3.035 52.3901 0.5 61.0001 0.5C69.6138 0.5 77.6613 3.03875 83.5226 5.7725C86.0501 6.92855 88.4654 8.31569 90.7376 9.91625C91.6263 10.5575 92.4363 11.2288 93.0626 11.8813C93.3776 12.2038 93.7226 12.605 94.0151 13.0737C94.2476 13.445 94.7501 14.3225 94.7501 15.5C94.7501 21.5075 94.2626 26.375 93.7751 29.7688C93.6176 30.845 93.4601 31.775 93.3176 32.5438C93.7976 32.9 94.3188 33.3088 94.8438 33.77C95.7813 34.5913 96.8538 35.66 97.6901 36.9238C98.5113 38.1613 99.3251 39.9163 99.1976 41.9863C99.0588 44.21 97.8776 46.0625 96.1151 47.45ZM34.7576 16.6925C34.8138 21.7475 35.2338 25.835 35.6501 28.6925C35.7476 29.3675 35.8451 29.9675 35.9351 30.5H86.0651C86.1588 29.9675 86.2526 29.3638 86.3501 28.6925C86.7626 25.835 87.1863 21.7475 87.2426 16.6925C86.9507 16.4457 86.6492 16.2106 86.3388 15.9875C84.9851 15.0088 82.9301 13.775 80.3501 12.5712C75.1638 10.1488 68.2151 8 61.0001 8C53.7851 8 46.8363 10.1488 41.6501 12.5712C39.0701 13.775 37.0151 15.0087 35.6651 15.9838C35.3533 16.2092 35.0505 16.4469 34.7576 16.6963V16.6925ZM33.9551 38L33.9438 38.0075C33.2966 38.4388 32.6767 38.9097 32.0876 39.4175C31.4201 40.0025 30.8876 40.5725 30.5651 41.0675C30.4883 41.1788 30.4194 41.2954 30.3588 41.4162C30.4119 41.4647 30.467 41.511 30.5238 41.555C31.0863 41.9975 32.2938 42.6463 34.6488 43.2875C35.1138 43.415 35.6126 43.535 36.1451 43.655L36.1788 43.6625C38.0613 44.0788 40.3788 44.45 43.2026 44.7425C47.2038 45.1588 52.2401 45.4325 58.5326 45.4925L61.0001 45.5C73.1013 45.5 80.9276 44.7463 85.8251 43.6625L85.8551 43.655C86.3913 43.535 86.8901 43.415 87.3551 43.2875C89.7063 42.65 90.9176 41.9975 91.4763 41.555C91.5332 41.511 91.5882 41.4647 91.6413 41.4162C91.5819 41.2955 91.5143 41.179 91.4388 41.0675C91.0027 40.4546 90.4897 39.9 89.9126 39.4175C89.3248 38.9097 88.7061 38.4388 88.0601 38.0075L88.0451 38H33.9551ZM59.9801 53C69.8876 53 77.5676 52.475 83.4551 51.56C83.6486 54.6174 83.2157 57.6822 82.183 60.5664C81.1502 63.4506 79.5393 66.0936 77.449 68.3333C75.3588 70.5729 72.8331 72.3621 70.0269 73.5912C67.2207 74.8203 64.1931 75.4634 61.1296 75.481C58.0661 75.4987 55.0313 74.8905 52.2111 73.6938C49.3909 72.4971 46.8449 70.7372 44.7289 68.5217C42.613 66.3063 40.9718 63.6821 39.9058 60.8099C38.8399 57.9378 38.3718 54.8782 38.5301 51.8188C44.0163 52.5763 51.0476 53 59.9801 53Z" fill="#1F4590"/>
<path fill-rule="evenodd" clip-rule="evenodd" d="M31.2925 123.789C31.0971 125.184 30.9994 126.591 31 128V131.75C31.0004 132.574 30.7292 133.376 30.2283 134.031C29.7273 134.685 29.0246 135.157 28.2288 135.372C27.433 135.587 26.5885 135.534 25.8259 135.221C25.0633 134.908 24.4251 134.352 24.01 133.64C21.4827 135.011 18.5252 135.359 15.7488 134.611L8.50377 132.669C5.62286 131.895 3.16699 130.01 1.67617 127.426C0.185348 124.842 -0.218377 121.772 0.553763 118.891L3.46376 108.024C4.23627 105.142 6.12172 102.685 8.70544 101.194C11.2892 99.7022 14.3595 99.298 17.2413 100.07L24.4863 102.009C27.0063 102.684 29.0988 104.165 30.5538 106.1C34.0252 101.268 38.598 97.3325 43.8932 94.6196C49.1885 91.9068 55.054 90.4946 61.0038 90.5C66.9503 90.4961 72.8124 91.9083 78.1048 94.6197C83.3973 97.3312 87.968 101.264 91.4388 106.093C92.946 104.093 95.0796 102.657 97.4988 102.013L104.744 100.074C107.625 99.3016 110.695 99.7054 113.279 101.196C115.862 102.687 117.748 105.143 118.521 108.024L121.435 118.895C121.817 120.322 121.915 121.811 121.721 123.275C121.528 124.74 121.049 126.153 120.31 127.432C119.571 128.711 118.587 129.833 117.415 130.732C116.243 131.631 114.905 132.29 113.478 132.672L106.236 134.611C103.465 135.359 100.512 135.016 97.9863 133.651C97.5699 134.362 96.9308 134.917 96.1679 135.228C95.4049 135.54 94.5605 135.592 93.7653 135.375C92.9701 135.159 92.2683 134.686 91.7684 134.031C91.2686 133.376 90.9985 132.574 91 131.75V128C91.0007 126.591 90.9029 125.184 90.7075 123.789L71.1925 129.02C70.2867 130.959 68.8465 132.599 67.0412 133.748C65.2358 134.898 63.1401 135.508 61 135.508C58.8599 135.508 56.7642 134.898 54.9588 133.748C53.1535 132.599 51.7134 130.959 50.8075 129.02L31.2925 123.789ZM50.2 121.089C50.7033 119.379 51.6047 117.813 52.8301 116.519C54.0556 115.225 55.5703 114.24 57.25 113.645V98.2325C51.9901 98.8975 46.9999 100.943 42.7865 104.161C38.5732 107.379 35.2868 111.655 33.2613 116.555L50.2 121.093V121.089ZM88.7388 116.551C86.7127 111.652 83.4261 107.377 79.2128 104.159C74.9994 100.942 70.0095 98.8971 64.75 98.2325V113.641C68.14 114.841 70.7875 117.616 71.8 121.093L88.7388 116.555V116.551ZM96.79 113.851C96.6624 113.376 96.6298 112.879 96.6939 112.391C96.7581 111.903 96.9179 111.432 97.1641 111.005C97.4103 110.579 97.7381 110.205 98.1288 109.905C98.5195 109.605 98.9655 109.385 99.4413 109.258L106.686 107.315C107.646 107.058 108.669 107.194 109.53 107.691C110.391 108.188 111.019 109.006 111.276 109.966L114.19 120.834C114.318 121.309 114.35 121.806 114.286 122.294C114.222 122.782 114.062 123.253 113.816 123.68C113.57 124.106 113.242 124.48 112.851 124.78C112.46 125.08 112.015 125.3 111.539 125.428L104.294 127.37C103.818 127.498 103.321 127.53 102.833 127.466C102.344 127.401 101.873 127.241 101.447 126.995C101.02 126.748 100.646 126.42 100.346 126.029C100.047 125.637 99.8271 125.191 99.7 124.715L96.79 113.851ZM15.3025 107.315C14.8265 107.187 14.33 107.154 13.8412 107.218C13.3525 107.282 12.8811 107.441 12.4541 107.687C12.0271 107.934 11.6528 108.262 11.3527 108.653C11.0526 109.044 10.8325 109.49 10.705 109.966L7.79501 120.83C7.66741 121.306 7.63476 121.802 7.69895 122.29C7.76313 122.779 7.92288 123.249 8.16908 123.676C8.41528 124.103 8.7431 124.477 9.13383 124.776C9.52455 125.076 9.97052 125.296 10.4463 125.424L17.6913 127.366C18.167 127.494 18.6632 127.527 19.1515 127.462C19.6398 127.398 20.1107 127.238 20.5373 126.992C20.9639 126.746 21.3378 126.418 21.6377 126.027C21.9376 125.637 22.1575 125.191 22.285 124.715L25.195 113.848C25.3232 113.372 25.3563 112.875 25.2923 112.386C25.2284 111.897 25.0688 111.426 24.8225 110.999C24.5763 110.572 24.2483 110.198 23.8573 109.898C23.4663 109.598 23.0199 109.377 22.5438 109.25L15.2988 107.311L15.3025 107.315ZM64.75 124.25C64.75 125.245 64.3549 126.198 63.6517 126.902C62.9484 127.605 61.9946 128 61 128C60.0055 128 59.0516 127.605 58.3484 126.902C57.6451 126.198 57.25 125.245 57.25 124.25C57.25 123.255 57.6451 122.302 58.3484 121.598C59.0516 120.895 60.0055 120.5 61 120.5C61.9946 120.5 62.9484 120.895 63.6517 121.598C64.3549 122.302 64.75 123.255 64.75 124.25Z" fill="#1F4590"/>
</svg>
