<svg width="53" height="52" viewBox="0 0 53 52" fill="none" xmlns="http://www.w3.org/2000/svg">
<path d="M27 7.49425e-08C22.4845 -0.000342722 18.0468 1.17532 14.1238 3.41123C10.2007 5.64715 6.92759 8.86622 4.62669 12.7515C2.32579 16.6368 1.07643 21.0544 1.00162 25.5692C0.926802 30.0841 2.02911 34.5406 4.20002 38.5L2.07502 46C1.87679 46.6834 1.86564 47.4075 2.04276 48.0967C2.21987 48.7859 2.57874 49.4149 3.08191 49.9181C3.58508 50.4213 4.2141 50.7802 4.9033 50.9573C5.5925 51.1344 6.3166 51.1232 7.00002 50.925L14.5 48.8C17.9757 50.705 21.841 51.7901 25.8003 51.9725C29.7597 52.1548 33.7083 51.4295 37.3444 49.852C40.9805 48.2746 44.2078 45.8867 46.7796 42.8708C49.3515 39.855 51.1998 36.2911 52.1833 32.4515C53.1668 28.612 53.2594 24.5984 52.4541 20.7175C51.6489 16.8366 49.967 13.1913 47.537 10.06C45.1071 6.92869 41.9934 4.39441 38.4339 2.65084C34.8745 0.907262 30.9636 0.00054902 27 7.49425e-08V7.49425e-08ZM27 48C23.0508 47.9963 19.1747 46.9345 15.775 44.925C15.4613 44.7501 15.1092 44.6556 14.75 44.65C14.5642 44.6503 14.3792 44.6755 14.2 44.725L5.90002 47.1L8.27502 38.8C8.34808 38.5374 8.36802 38.2628 8.33368 37.9924C8.29934 37.7219 8.21141 37.461 8.07502 37.225C5.59841 33.0504 4.57192 28.174 5.15544 23.3553C5.73896 18.5365 7.89973 14.046 11.3012 10.5833C14.7026 7.12048 19.1538 4.87982 23.9613 4.21029C28.7689 3.54076 33.6629 4.47996 37.881 6.88158C42.0992 9.2832 45.4047 13.0124 47.2826 17.4883C49.1606 21.9643 49.5056 26.9356 48.2638 31.628C47.0221 36.3205 44.2634 40.4705 40.4174 43.4317C36.5713 46.3929 31.854 47.9991 27 48V48ZM40.125 29.775L35 26.85C34.3862 26.4968 33.6888 26.315 32.9807 26.3238C32.2726 26.3326 31.5798 26.5316 30.975 26.9L28 28.675C26.4824 27.7825 25.2175 26.5176 24.325 25L26.1 22.025C26.4684 21.4202 26.6674 20.7275 26.6762 20.0193C26.685 19.3112 26.5033 18.6138 26.15 18L23.225 12.875C22.8998 12.3065 22.4304 11.8339 21.8641 11.5047C21.2979 11.1755 20.655 11.0014 20 11C17.6174 11 15.332 11.9448 13.6449 13.6272C11.9578 15.3096 11.0066 17.5924 11 19.975C11 25.8121 13.3171 31.4104 17.4422 35.5402C21.5672 39.67 27.163 41.9934 33 42H33.025C35.4076 41.9934 37.6904 41.0422 39.3728 39.3551C41.0553 37.668 42 35.3826 42 33C41.9986 32.3451 41.8245 31.7021 41.4953 31.1359C41.1661 30.5697 40.6935 30.1003 40.125 29.775V29.775ZM33.025 38C30.657 38.0033 28.3116 37.5393 26.1233 36.6346C23.9349 35.73 21.9465 34.4024 20.2721 32.7279C18.5977 31.0535 17.2701 29.0651 16.3654 26.8768C15.4607 24.6884 14.9967 22.343 15 19.975C14.9996 18.6769 15.5066 17.4301 16.4127 16.5006C17.3188 15.5711 18.5524 15.0326 19.85 15L22.675 19.975L20.325 23.875C20.1624 24.1532 20.0684 24.4661 20.051 24.7879C20.0337 25.1097 20.0933 25.4309 20.225 25.725C21.6184 28.8687 24.1313 31.3817 27.275 32.775C27.5691 32.9067 27.8904 32.9664 28.2121 32.949C28.5339 32.9316 28.8469 32.8377 29.125 32.675L33.025 30.325L38 33.15C37.9674 34.4477 37.4289 35.6812 36.4994 36.5873C35.5699 37.4935 34.3231 38.0004 33.025 38Z" fill="white"/>
</svg>
